<?xml version="1.0" standalone="no"?><!DOCTYPE svg PUBLIC "-//W3C//DTD SVG 1.1//EN" "http://www.w3.org/Graphics/SVG/1.1/DTD/svg11.dtd"><svg t="1557302123196" class="icon" style="" viewBox="0 0 1024 1024" version="1.1" xmlns="http://www.w3.org/2000/svg" p-id="1082" xmlns:xlink="http://www.w3.org/1999/xlink" width="200" height="200"><defs><style type="text/css"></style></defs><path d="M468.555758 821.330761v57.608158c-36.97082-26.317015-71.789713-84.807111-94.437868-165.310366H434.266028c-1.26999-11.112413-2.11665-22.401213-2.11665-33.866401 0-7.47883 0.56444-14.81655 1.12888-22.15427h-72.213043c-6.455783-34.536673-10.759638-72.001378-12.311847-112.006063h116.027698c15.345713-29.809488 35.630275-56.620388 59.795363-79.409653v-88.581803h140.545561c0.776105 4.550798 1.164158 9.524925 1.869707 14.146277 18.132635-3.704138 36.935543-5.609123 56.091226-5.820787-0.388053-2.716368-0.56444-5.6444-0.98777-8.32549h138.040858c6.138285 15.80432 11.041858 32.17308 14.95766 48.929893 33.01974 19.437903 61.80618 45.084645 84.912944 75.388018C954.609157 259.536569 755.820443 63.993385 512.123471 63.993385c-247.083612 0-448.130086 200.975919-448.130086 447.988976s201.046474 447.988976 448.130086 447.988976c33.30196 0 65.721983-3.774693 96.977848-10.689083-59.795363-25.999518-109.289696-71.225273-140.545561-127.951493zM832.760671 321.589692h-121.813208c-14.710718-62.123678-36.371103-115.710201-63.252558-157.090708 77.786888 30.444483 142.768044 86.182933 185.065766 157.090708zM524.576429 139.310849c7.866883 0.246943 15.733765 0.458608 23.494815 1.199435 41.48634 24.447308 81.314638 89.005133 105.303338 181.114686H524.576429V139.310849z m-56.020671 350.305577H348.506425c1.023048-39.828298 4.727185-77.328281 10.618528-112.006063h109.430805v112.006063z m0-344.555345v176.528611h-97.64812c22.507045-86.429876 58.948703-148.941606 97.64812-176.528611z m-91.968443 19.437903c-26.881455 41.380508-48.577118 94.967031-63.252558 157.090708H191.486271c42.297723-70.943053 107.278878-126.646226 185.101044-157.090708z m-212.476384 213.111379h138.040859c-5.538568 35.41861-8.713543 73.024426-9.666035 112.006063H139.804734c2.363593-39.299135 10.689083-76.904951 24.306197-112.006063z m4.162745 279.997519c-14.851828-34.924725-24.341475-72.601096-27.904502-112.006063h152.398801c1.446378 39.122748 5.326903 76.622731 11.394632 112.006063H168.273676z m30.021153 55.985393h117.685741c14.604885 57.396493 35.312778 106.996658 60.606745 145.872464-73.694698-28.78644-135.959486-80.221036-178.292486-145.872464z" fill="#333333" p-id="1083"></path><path d="M726.22262 447.600923c-96.625073 0-174.941124 78.316051-174.941123 174.905847 0 34.960003 84.701278 195.860681 136.030041 290.157439 16.580425 30.47976 60.183415 30.585593 76.90495 0.176388 51.681538-94.049816 136.982534-254.632997 136.982534-290.29855 0-96.625073-78.351328-174.941124-174.976402-174.941124m-15.592655 270.40204c-60.888965-9.560203-100.435043-71.789713-79.480208-132.960899 13.334895-38.911083 51.328763-66.60392 92.462328-67.30947 64.62838-1.164158 111.723843 55.526785 102.163641 116.345196-8.642988 54.962345-60.183415 92.532883-115.145761 83.925173" fill="#333333" p-id="1084"></path></svg>