<?xml version="1.0" standalone="no"?><!DOCTYPE svg PUBLIC "-//W3C//DTD SVG 1.1//EN" "http://www.w3.org/Graphics/SVG/1.1/DTD/svg11.dtd"><svg t="1557302302224" class="icon" style="" viewBox="0 0 1024 1024" version="1.1" xmlns="http://www.w3.org/2000/svg" p-id="1749" xmlns:xlink="http://www.w3.org/1999/xlink" width="200" height="200"><defs><style type="text/css"></style></defs><path d="M545.531264 821.401316H150.670204v-415.921728h554.597581v14.922383c19.684845-4.691908 40.110518-7.408275 61.206463-7.408275 8.572433 0 17.07431 0.493885 25.435078 1.26999v-147.459952c0-28.715885-23.28315-51.999035-51.999036-51.999035h-69.320288v56.655665c0 24.447308-12.311848 47.871568-33.478347 60.077583-60.430358 34.924725-122.483481-8.149103-122.483481-65.439763V214.839977h-155.961829v52.739862c0 29.245048-16.22765 56.902608-42.89744 68.826403-57.29066 25.576188-113.064388-15.94543-113.064389-70.237503V214.839977H115.992421c-28.715885 0-51.999035 23.28315-51.999036 51.999035v589.240087c0 28.715885 23.28315 51.999035 51.999036 51.999035h522.741999c-37.711648-20.919558-69.673063-50.764323-93.203156-86.676818z m-50.129328-292.344645c-14.357943-17.532918-35.171668-26.458125-61.912013-26.458125-29.35088 0-53.022083 9.948255-70.590278 29.597823-4.79774-6.526338-10.618528-12.13546-17.462362-16.756813-12.629345-8.501878-27.340063-12.84101-43.708823-12.84101-22.85982 0-42.015503 5.714955-57.325938 17.003755v-12.206015H184.677714v220.801874h59.68953V604.303579c0-15.204603 3.845248-26.881455 11.747408-35.70083 7.549385-8.431323 16.862645-12.523513 28.539498-12.523512 17.92097 0 36.229993 5.185793 36.229992 43.638267v128.480656h58.983981V603.950804c0-13.476005 4.021635-24.764805 12.27657-34.395562 7.796328-9.066318 16.968478-13.476005 28.010335-13.476005 18.097358 0 36.582768 5.609123 36.582768 47.201295v124.952906h50.693768c-3.24553-16.580425-5.044683-33.654735-5.044683-51.187653 0-28.892273 4.79774-56.620388 13.370173-82.655183-0.776105-27.51645-7.47883-49.635443-20.355118-65.333931z m95.707858-219.602439h4.127468c22.789265 0 41.239398-18.48541 41.239398-41.239398V157.196541c0-22.789265-18.48541-41.239398-41.239398-41.239398h-4.127468c-22.789265 0-41.239398 18.48541-41.239397 41.239398v111.018293c-0.035278 22.789265 18.450133 41.239398 41.239397 41.239398z m-313.158369 0h4.127467c22.789265 0 41.239398-18.48541 41.239398-41.239398V157.196541c0-22.789265-18.48541-41.239398-41.239398-41.239398h-4.127467C255.162159 115.921866 236.712027 134.407276 236.712027 157.196541v111.018293c0 22.789265 18.450133 41.239398 41.239398 41.239398z m647.694904 273.823957c-39.193303-58.737038-94.861198-89.816516-164.992868-95.24925v-13.617116c6.34995-0.84666 14.499053 0.388053 17.63875-2.998587 3.421918-3.66886 2.39887-11.641575 2.892755-17.77986 0.42333-5.22107-2.716368-7.584663-7.690495-7.584663-15.09877-0.035278-30.162263 0-45.261033 0-4.762463 0-7.372998 2.187205-7.33772 7.161333 0.070555 4.37441 0.070555 8.74882 0 13.12323-0.035278 4.974128 2.645813 7.126055 7.33772 7.161332 3.598305 0.035278 7.19661 0 10.794915 0v14.745996c-60.500913 4.056913-110.630241 28.433665-149.435491 74.188583-38.840528 45.825473-54.60957 99.306163-48.436008 159.030971 10.124643 97.965618 91.157061 180.268026 196.248734 186.265201 112.641058 6.420505 206.126434-74.964688 220.378544-180.585524 7.0555-51.716815-2.998588-100.223378-32.137803-143.861646z m-176.034726 263.34654c-82.514073-0.28222-148.236056-66.03948-148.341889-148.518276-0.14111-82.549351 66.356978-148.941606 148.835774-148.694664 82.514073 0.28222 148.306611 66.145313 148.341889 148.518276 0.070555 82.619906-66.356978 148.976884-148.835774 148.694664z m95.954801-157.372929c0-9.73659-1.199435-10.971303-10.86547-10.971303h-66.533366v-7.796327c0-34.078065-0.105833-68.191408 0.105833-102.269473 0.035278-5.891343-1.83443-8.4666-7.90216-8.149103-6.526338 0.352775-13.12323 0.211665-19.649568 0.035278-4.691908-0.176388-6.702725 1.55221-6.702725 6.455782 0.105833 48.506563 0.070555 97.013126 0.035277 145.554966-0.035278 4.727185 1.904985 6.843835 6.561615 6.843835 32.772798-0.035278 65.545595-0.035278 98.353671 0 4.550798 0 6.808558-1.97554 6.702725-6.738002-0.211665-7.655218-0.070555-15.310435-0.105832-22.965653z" fill="#333333" p-id="1750"></path></svg>